<?xml version="1.0" encoding="UTF-8" standalone="no"?>
<!-- Generator: Adobe Illustrator 16.0.0, SVG Export Plug-In . SVG Version: 6.00 Build 0)  -->

<svg
   xmlns:dc="http://purl.org/dc/elements/1.1/"
   xmlns:cc="http://creativecommons.org/ns#"
   xmlns:rdf="http://www.w3.org/1999/02/22-rdf-syntax-ns#"
   xmlns:svg="http://www.w3.org/2000/svg"
   xmlns="http://www.w3.org/2000/svg"
   xmlns:sodipodi="http://sodipodi.sourceforge.net/DTD/sodipodi-0.dtd"
   xmlns:inkscape="http://www.inkscape.org/namespaces/inkscape"
   version="1.1"
   id="Layer_2"
   x="0px"
   y="0px"
   width="341px"
   height="317px"
   viewBox="0 0 341 317"
   enable-background="new 0 0 341 317"
   xml:space="preserve"
   inkscape:version="0.91 r13725"
   sodipodi:docname="pause.svg"><metadata
     id="metadata11"><rdf:RDF><cc:Work
         rdf:about=""><dc:format>image/svg+xml</dc:format><dc:type
           rdf:resource="http://purl.org/dc/dcmitype/StillImage" /><dc:title></dc:title></cc:Work></rdf:RDF></metadata><defs
     id="defs9" /><sodipodi:namedview
     pagecolor="#ffffff"
     bordercolor="#666666"
     borderopacity="1"
     objecttolerance="10"
     gridtolerance="10"
     guidetolerance="10"
     inkscape:pageopacity="0"
     inkscape:pageshadow="2"
     inkscape:window-width="1360"
     inkscape:window-height="668"
     id="namedview7"
     showgrid="false"
     inkscape:zoom="0.7444795"
     inkscape:cx="26.103814"
     inkscape:cy="158.5"
     inkscape:window-x="0"
     inkscape:window-y="27"
     inkscape:window-maximized="1"
     inkscape:current-layer="layer1" /><g
     inkscape:groupmode="layer"
     id="layer1"
     inkscape:label="Layer 1"
     style="display:inline"><path
       d="M 143,248.561 C 143,257.088 137.627,264 131,264 l -38,0 c -6.627,0 -12,-6.912 -12,-15.439 L 81,68.439 C 81,59.912 86.373,53 93,53 l 38,0 c 6.627,0 12,6.912 12,15.439 l 0,180.122 z"
       id="path3"
       inkscape:connector-curvature="0" /><path
       d="M 259,248.561 C 259,257.088 253.627,264 247,264 l -38,0 c -6.627,0 -12,-6.912 -12,-15.439 L 197,68.439 C 197,59.912 202.373,53 209,53 l 38,0 c 6.627,0 12,6.912 12,15.439 l 0,180.122 z"
       id="path5"
       inkscape:connector-curvature="0" /></g></svg>