<?xml version="1.0" encoding="utf-8"?>
<!-- Generator: Adobe Illustrator 16.0.0, SVG Export Plug-In . SVG Version: 6.00 Build 0)  -->
<!DOCTYPE svg PUBLIC "-//W3C//DTD SVG 1.1//EN" "http://www.w3.org/Graphics/SVG/1.1/DTD/svg11.dtd">
<svg version="1.1" id="Layer_2" xmlns="http://www.w3.org/2000/svg" xmlns:xlink="http://www.w3.org/1999/xlink" x="0px" y="0px"
	 width="341px" height="317px" viewBox="0 0 341 317" enable-background="new 0 0 341 317" xml:space="preserve">
<rect x="32" y="125" width="59" height="74"/>
<polyline points="157.748,46.925 31.627,163.425 157,275.998 157,46.925 157.245,95.771 "/>
<path d="M186.064,97.5c-0.17,0-0.335,0.012-0.502,0.013v127.975c0.167,0.001,0.332,0.013,0.502,0.013
	c34.309,0,62.125-28.653,62.125-64S220.373,97.5,186.064,97.5z"/>
<path d="M288.666,161.973c0,55.245-45.014,100.802-103.104,107.271V54.704C243.652,61.174,288.666,106.729,288.666,161.973z
	 M186.195,73.816c-0.213,0-0.422,0.014-0.633,0.015v174.814c0.211,0.001,0.42,0.017,0.633,0.017
	c43.292,0,78.391-39.141,78.391-87.424C264.586,112.957,229.487,73.816,186.195,73.816z"/>
</svg>
