<?xml version="1.0" encoding="UTF-8" standalone="no"?>
<!-- Generator: Adobe Illustrator 16.0.0, SVG Export Plug-In . SVG Version: 6.00 Build 0)  -->

<svg
   xmlns:dc="http://purl.org/dc/elements/1.1/"
   xmlns:cc="http://creativecommons.org/ns#"
   xmlns:rdf="http://www.w3.org/1999/02/22-rdf-syntax-ns#"
   xmlns:svg="http://www.w3.org/2000/svg"
   xmlns="http://www.w3.org/2000/svg"
   xmlns:sodipodi="http://sodipodi.sourceforge.net/DTD/sodipodi-0.dtd"
   xmlns:inkscape="http://www.inkscape.org/namespaces/inkscape"
   version="1.1"
   id="Layer_2"
   x="0px"
   y="0px"
   width="341px"
   height="317px"
   viewBox="0 0 341 317"
   enable-background="new 0 0 341 317"
   xml:space="preserve"
   inkscape:version="0.91 r13725"
   sodipodi:docname="sound100.svg"><metadata
     id="metadata15"><rdf:RDF><cc:Work
         rdf:about=""><dc:format>image/svg+xml</dc:format><dc:type
           rdf:resource="http://purl.org/dc/dcmitype/StillImage" /><dc:title></dc:title></cc:Work></rdf:RDF></metadata><defs
     id="defs13" /><sodipodi:namedview
     pagecolor="#ffffff"
     bordercolor="#666666"
     borderopacity="1"
     objecttolerance="10"
     gridtolerance="10"
     guidetolerance="10"
     inkscape:pageopacity="0"
     inkscape:pageshadow="2"
     inkscape:window-width="1360"
     inkscape:window-height="668"
     id="namedview11"
     showgrid="false"
     inkscape:zoom="0.7444795"
     inkscape:cx="26.103814"
     inkscape:cy="158.5"
     inkscape:window-x="0"
     inkscape:window-y="27"
     inkscape:window-maximized="1"
     inkscape:current-layer="layer4" /><g
     inkscape:groupmode="layer"
     id="layer1"
     inkscape:label="Layer 1"
     style="display:inline"><rect
       x="32"
       y="125"
       width="59"
       height="74"
       id="rect3" /></g><g
     inkscape:groupmode="layer"
     id="layer2"
     inkscape:label="Layer 2"
     style="display:inline"><polyline
       points="157.748,46.925 31.627,163.425 157,275.998 157,46.925 157.245,95.771 "
       id="polyline5" /></g><g
     inkscape:groupmode="layer"
     id="layer3"
     inkscape:label="Layer 3"
     style="display:inline"><path
       d="m 186.064,97.5 c -0.17,0 -0.335,0.012 -0.502,0.013 l 0,127.975 c 0.167,0.001 0.332,0.013 0.502,0.013 34.309,0 62.125,-28.653 62.125,-64 0,-35.347 -27.816,-64.001 -62.125,-64.001 z"
       id="path7"
       inkscape:connector-curvature="0" /></g><g
     inkscape:groupmode="layer"
     id="layer4"
     inkscape:label="Layer 4"
     style="display:inline"><path
       d="m 288.666,161.973 c 0,55.245 -45.014,100.802 -103.104,107.271 l 0,-214.54 c 58.09,6.47 103.104,52.025 103.104,107.269 z M 186.195,73.816 c -0.213,0 -0.422,0.014 -0.633,0.015 l 0,174.814 c 0.211,10e-4 0.42,0.017 0.633,0.017 43.292,0 78.391,-39.141 78.391,-87.424 0,-48.281 -35.099,-87.422 -78.391,-87.422 z"
       id="path9"
       inkscape:connector-curvature="0" /></g></svg>