<?xml version="1.0" encoding="utf-8"?>
<!-- Generator: Adobe Illustrator 16.0.0, SVG Export Plug-In . SVG Version: 6.00 Build 0)  -->
<!DOCTYPE svg PUBLIC "-//W3C//DTD SVG 1.1//EN" "http://www.w3.org/Graphics/SVG/1.1/DTD/svg11.dtd">
<svg version="1.1" id="Layer_2" xmlns="http://www.w3.org/2000/svg" xmlns:xlink="http://www.w3.org/1999/xlink" x="0px" y="0px"
	 width="341px" height="317px" viewBox="0 0 341 317" enable-background="new 0 0 341 317" xml:space="preserve">
<polyline points="168,46 45,46 45,157 80,157 80,80 167,80 167,46 "/>
<polyline points="169,279 46,279 46,168 81,168 81,245 168,245 168,279 "/>
<polyline points="183,279 306,279 306,168 271,168 271,245 184,245 184,279 "/>
<polyline points="183,46 306,46 306,157 271,157 271,80 184,80 184,46 "/>
</svg>
