<?xml version="1.0" encoding="utf-8"?>
<!-- Generator: Adobe Illustrator 16.0.0, SVG Export Plug-In . SVG Version: 6.00 Build 0)  -->
<!DOCTYPE svg PUBLIC "-//W3C//DTD SVG 1.1//EN" "http://www.w3.org/Graphics/SVG/1.1/DTD/svg11.dtd">
<svg version="1.1" id="Layer_2" xmlns="http://www.w3.org/2000/svg" xmlns:xlink="http://www.w3.org/1999/xlink" x="0px" y="0px"
	 width="341px" height="317px" viewBox="0 0 341 317" enable-background="new 0 0 341 317" xml:space="preserve">
<polyline points="27,134 150,134 150,23 115,23 115,100 28,100 28,134 "/>
<polyline points="27,189 150,189 150,300 115,300 115,223 28,223 28,189 "/>
<polyline points="323,189 200,189 200,300 235,300 235,223 322,223 322,189 "/>
<polyline points="325,134 202,134 202,23 237,23 237,100 324,100 324,134 "/>
</svg>
