<?xml version="1.0" encoding="utf-8"?>
<!-- Generator: Adobe Illustrator 16.0.0, SVG Export Plug-In . SVG Version: 6.00 Build 0)  -->
<!DOCTYPE svg PUBLIC "-//W3C//DTD SVG 1.1//EN" "http://www.w3.org/Graphics/SVG/1.1/DTD/svg11.dtd">
<svg version="1.1" id="Layer_2" xmlns="http://www.w3.org/2000/svg" xmlns:xlink="http://www.w3.org/1999/xlink" x="0px" y="0px"
	 width="341px" height="317px" viewBox="0 0 341 317" enable-background="new 0 0 341 317" xml:space="preserve">
<path d="M143,248.561c0,8.527-5.373,15.439-12,15.439H93c-6.627,0-12-6.912-12-15.439V68.439C81,59.912,86.373,53,93,53h38
	c6.627,0,12,6.912,12,15.439V248.561z"/>
<path d="M259,248.561c0,8.527-5.373,15.439-12,15.439h-38c-6.627,0-12-6.912-12-15.439V68.439C197,59.912,202.373,53,209,53h38
	c6.627,0,12,6.912,12,15.439V248.561z"/>
</svg>
